<svg xmlns="http://www.w3.org/2000/svg" width="25" height="15" viewBox="0 0 25 15">
  <metadata><?xpacket begin="﻿" id="W5M0MpCehiHzreSzNTczkc9d"?>
<x:xmpmeta xmlns:x="adobe:ns:meta/" x:xmptk="Adobe XMP Core 5.6-c138 79.159824, 2016/09/14-01:09:01        ">
   <rdf:RDF xmlns:rdf="http://www.w3.org/1999/02/22-rdf-syntax-ns#">
      <rdf:Description rdf:about=""/>
   </rdf:RDF>
</x:xmpmeta>
<?xpacket end="w"?></metadata>
<defs>
    <style>
      .cls-1 {
        fill: #fff;
        fill-rule: evenodd;
      }
    </style>
  </defs>
  <path id="в_котакте" data-name="в котакте" class="cls-1" d="M311.889,35.5a21.978,21.978,0,0,0-1.754-1.848c-0.209-.2-0.426-0.414-0.634-0.623h0a1.286,1.286,0,0,1-.431-0.627,1.219,1.219,0,0,1,.3-0.677c0.331-.477.683-0.955,1.025-1.418,0.3-.411.616-0.836,0.917-1.263l0.067-.1A9.882,9.882,0,0,0,312.9,26.2a1.4,1.4,0,0,0-.043-1.139,1.322,1.322,0,0,0-.967-0.561,2.374,2.374,0,0,0-.42-0.028l-3.8,0a1.339,1.339,0,0,0-1.362.952c-0.2.514-.434,1.109-0.706,1.674a13.675,13.675,0,0,1-2.141,3.392l-0.043.046a1.276,1.276,0,0,1-.227.216,1.091,1.091,0,0,1-.218-0.652V30.086l0-4.516a0.528,0.528,0,0,0,0-.069,1.457,1.457,0,0,0-1.244-1.492,0.474,0.474,0,0,0-.1-0.01h-3.956a1.742,1.742,0,0,0-1.453.73,0.8,0.8,0,0,0-.211.764,0.76,0.76,0,0,0,.621.46,0.84,0.84,0,0,1,.723.813,13.514,13.514,0,0,1,.052,3.13,2.613,2.613,0,0,1-.164.774,0.542,0.542,0,0,1-.058.112,0.587,0.587,0,0,1-.107-0.062,3.335,3.335,0,0,1-.752-0.864,21.4,21.4,0,0,1-2.268-4.321,1.5,1.5,0,0,0-1.4-1.05c-1.219-.021-2.346-0.02-3.444,0a1.2,1.2,0,0,0-1.08.5,1.277,1.277,0,0,0,.022,1.221,43.817,43.817,0,0,0,4.488,8.22,11.558,11.558,0,0,0,3.524,3.383A8.958,8.958,0,0,0,300.818,39q0.3,0,.615-0.015a1.421,1.421,0,0,0,1.59-1.6,3.352,3.352,0,0,1,.308-1.457,0.4,0.4,0,0,1,.183-0.2,0.418,0.418,0,0,1,.274.1,2.929,2.929,0,0,1,.533.491c0.149,0.168.3,0.341,0.445,0.508,0.31,0.356.631,0.725,0.967,1.077a3.156,3.156,0,0,0,2.6,1.084l3.48,0h0.033a1.17,1.17,0,0,0,.952-0.627,1.628,1.628,0,0,0-.01-1.514A7.679,7.679,0,0,0,311.889,35.5Zm0.045,2.352a0.181,0.181,0,0,1-.138.107l-3.479,0h0l-0.041,0a2.164,2.164,0,0,1-1.832-.779c-0.319-.335-0.632-0.694-0.935-1.042-0.147-.169-0.3-0.345-0.452-0.517a3.842,3.842,0,0,0-.726-0.659,1.207,1.207,0,0,0-1.874.474,4.374,4.374,0,0,0-.43,1.9,0.854,0.854,0,0,1-.106.509,0.919,0.919,0,0,1-.534.111,8.281,8.281,0,0,1-4.737-1.04,10.6,10.6,0,0,1-3.217-3.1,42.873,42.873,0,0,1-4.381-8.031,0.9,0.9,0,0,1-.076-0.242,0.838,0.838,0,0,1,.243-0.032c1.088-.022,2.2-0.022,3.41,0a0.512,0.512,0,0,1,.5.412A22.367,22.367,0,0,0,295.5,30.45a4.224,4.224,0,0,0,1,1.118,1.078,1.078,0,0,0,.955.214,1.117,1.117,0,0,0,.692-0.711,3.641,3.641,0,0,0,.239-1.083,14.57,14.57,0,0,0-.06-3.371A1.864,1.864,0,0,0,297.29,25.1a0.758,0.758,0,0,1,.375-0.077h3.9a0.422,0.422,0,0,1,.278.13,1.219,1.219,0,0,1,.122.451l0,4.475a1.788,1.788,0,0,0,.885,1.641l0.017,0.006a1.173,1.173,0,0,0,1.268-.49l0.04-.044a14.592,14.592,0,0,0,2.31-3.642c0.288-.6.532-1.216,0.739-1.748a0.363,0.363,0,0,1,.421-0.306h0.009l3.808,0a1.56,1.56,0,0,1,.252.014A0.782,0.782,0,0,1,312,25.6a0.824,0.824,0,0,1-.053.293,8.981,8.981,0,0,1-1.375,2.457l-0.067.1c-0.294.417-.6,0.838-0.9,1.244-0.346.468-.7,0.952-1.042,1.441a1.734,1.734,0,0,0,.243,2.633c0.214,0.214.433,0.427,0.644,0.633a20.616,20.616,0,0,1,1.674,1.759,6.682,6.682,0,0,1,.784,1.157A0.6,0.6,0,0,1,311.934,37.855Z" transform="translate(-288 -24)"/>
</svg>
