<svg xmlns="http://www.w3.org/2000/svg" style="display:none"><defs><style>.cls-1{fill:#89c1a1;fill-rule:evenodd}</style><style>.cls-1{fill:#fff;fill-rule:evenodd}</style></defs><symbol id="arrow"><path fill-rule="evenodd" fill="#494949" d="M1.075 8.098l-.618-.612 3.309-3.281-1.495-1.483L.458.926l.617-.614 2.43 2.41L5 4.205 1.075 8.098z"/></symbol><symbol id="arrow1" viewbox="0 0 7.781 4.53"><path id="&#x441;&#x442;&#x440;&#x435;&#x43B;&#x43A;&#x430;" class="cls-1" d="M82.457 2583.53l.612-.62 3.281 3.31 1.482-1.5 1.8-1.81.615.62-2.411 2.43-1.482 1.49z" transform="translate(-82.469 -2582.91)"/></symbol><symbol id="VK" viewbox="0 0 25 15"><path id="&#x432;_&#x43A;&#x43E;&#x442;&#x430;&#x43A;&#x442;&#x435;" data-name="&#x432; &#x43A;&#x43E;&#x442;&#x430;&#x43A;&#x442;&#x435;" class="cls-1" d="M311.889 35.5a21.978 21.978 0 0 0-1.754-1.848c-.209-.2-.426-.414-.634-.623a1.286 1.286 0 0 1-.431-.627 1.219 1.219 0 0 1 .3-.677c.331-.477.683-.955 1.025-1.418.3-.411.616-.836.917-1.263l.067-.1A9.882 9.882 0 0 0 312.9 26.2a1.4 1.4 0 0 0-.043-1.139 1.322 1.322 0 0 0-.967-.561 2.374 2.374 0 0 0-.42-.028h-3.8a1.339 1.339 0 0 0-1.362.952c-.2.514-.434 1.109-.706 1.674a13.675 13.675 0 0 1-2.141 3.392l-.043.046a1.276 1.276 0 0 1-.227.216 1.091 1.091 0 0 1-.218-.652v-4.53a.528.528 0 0 0 0-.069 1.457 1.457 0 0 0-1.244-1.492.474.474 0 0 0-.1-.01h-3.956a1.742 1.742 0 0 0-1.453.73.8.8 0 0 0-.211.764.76.76 0 0 0 .621.46.84.84 0 0 1 .723.813 13.514 13.514 0 0 1 .052 3.13 2.613 2.613 0 0 1-.164.774.542.542 0 0 1-.058.112.587.587 0 0 1-.107-.062 3.335 3.335 0 0 1-.752-.864 21.4 21.4 0 0 1-2.268-4.321 1.5 1.5 0 0 0-1.4-1.05 96.373 96.373 0 0 0-3.444 0 1.2 1.2 0 0 0-1.08.5 1.277 1.277 0 0 0 .022 1.221 43.817 43.817 0 0 0 4.488 8.22 11.558 11.558 0 0 0 3.524 3.383A8.958 8.958 0 0 0 300.818 39q.3 0 .615-.015a1.421 1.421 0 0 0 1.59-1.6 3.352 3.352 0 0 1 .308-1.457.4.4 0 0 1 .183-.2.418.418 0 0 1 .274.1 2.929 2.929 0 0 1 .533.491c.149.168.3.341.445.508.31.356.631.725.967 1.077a3.156 3.156 0 0 0 2.6 1.084h3.513a1.17 1.17 0 0 0 .952-.627 1.628 1.628 0 0 0-.01-1.514 7.679 7.679 0 0 0-.899-1.347zm.045 2.352a.181.181 0 0 1-.138.107h-3.52a2.164 2.164 0 0 1-1.832-.779 31.733 31.733 0 0 1-.935-1.042c-.147-.169-.3-.345-.452-.517a3.842 3.842 0 0 0-.726-.659 1.207 1.207 0 0 0-1.874.474 4.374 4.374 0 0 0-.43 1.9.854.854 0 0 1-.106.509.919.919 0 0 1-.534.111 8.281 8.281 0 0 1-4.737-1.04 10.6 10.6 0 0 1-3.217-3.1 42.873 42.873 0 0 1-4.381-8.031.9.9 0 0 1-.076-.242.838.838 0 0 1 .243-.032c1.088-.022 2.2-.022 3.41 0a.512.512 0 0 1 .5.412 22.367 22.367 0 0 0 2.371 4.527 4.224 4.224 0 0 0 1 1.118 1.078 1.078 0 0 0 .955.214 1.117 1.117 0 0 0 .692-.711 3.641 3.641 0 0 0 .239-1.083 14.57 14.57 0 0 0-.06-3.371 1.864 1.864 0 0 0-1.036-1.517.758.758 0 0 1 .375-.077h3.9a.422.422 0 0 1 .278.13 1.219 1.219 0 0 1 .122.451v4.475a1.788 1.788 0 0 0 .885 1.641l.017.006a1.173 1.173 0 0 0 1.268-.49l.04-.044a14.592 14.592 0 0 0 2.31-3.642c.288-.6.532-1.216.739-1.748a.363.363 0 0 1 .421-.306H311.462a1.56 1.56 0 0 1 .252.014.782.782 0 0 1 .286.09.824.824 0 0 1-.053.293 8.981 8.981 0 0 1-1.375 2.457l-.067.1c-.294.417-.6.838-.9 1.244-.346.468-.7.952-1.042 1.441a1.734 1.734 0 0 0 .243 2.633c.214.214.433.427.644.633a20.616 20.616 0 0 1 1.674 1.759 6.682 6.682 0 0 1 .784 1.157.6.6 0 0 1 .026.538z" transform="translate(-288 -24)"/></symbol></svg>